<?xml version='1.0' encoding='iso-8859-1'?>
<svg version="1.1" xmlns="http://www.w3.org/2000/svg" viewBox="0 0 64.017 64.017" xmlns:xlink="http://www.w3.org/1999/xlink" enable-background="new 0 0 64.017 64.017">
  <g>
    <g>
      <path d="m63.707,14.266l-13.962-13.971c-0.398-0.398-1.071-0.278-1.75-0.278h-29.98c-1.104,0-1.999,0.895-1.999,2v16h-8v-1c0-1.105-0.895-2-2-2h-4c-1.105,0-2,0.895-2,2v4c0,1.105 0.895,2 2,2h1v18h-1c-1.105,0-2,0.895-2,2v4c0,1.105 0.895,2 2,2h4c1.105,0 2-0.895 2-2v-1h8v16c0,1.105 0.895,2 1.999,2h43.971c1.104,0 1.999-0.895 1.999-2v-46c-0.001-0.742 0.119-1.353-0.278-1.751zm-61.691,2.751h4v4h-4v-4zm4,30h-4v-4h4v4zm10-3h-8v-1c0-1.105-0.895-2-2-2h-1v-18h1c1.105,0 2-0.895 2-2v-1h8v24zm33.977-40.591l10.584,10.591h-10.584v-10.591zm-31.979,16.591h8.001v1c0,1.105 0.895,2 2,2h1v18h-1c-1.105,0-2,0.895-2,2v1h-8.001v-24zm10.002,1v-4h4v4h-4zm4,22v4h-4v-4h4zm29.97,19h-43.972v-16h8.001v1c0,1.105 0.895,2 2,2h4c1.105,0 2-0.895 2-2v-4c0-1.105-0.895-2-2-2h-1v-18h1c1.105,0 2-0.895 2-2v-4c0-1.105-0.895-2-2-2h-4c-1.105,0-2,0.895-2,2v1h-8.001v-16h29.98v13c0,0.552 0.448,1 0.999,1h12.992v46z"/>
    </g>
  </g>
</svg>
